<svg width="200" height="200" viewBox="0 0 200 200" fill="none" xmlns="http://www.w3.org/2000/svg">
<path d="M100 125C113.807 125 125 113.807 125 100C125 86.1929 113.807 75 100 75C86.1929 75 75 86.1929 75 100C75 113.807 86.1929 125 100 125Z" stroke="black" stroke-width="3" stroke-linecap="round" stroke-linejoin="round"/>
<path d="M161.333 124.667C160.224 127.18 159.893 129.968 160.383 132.672C160.873 135.375 162.162 137.869 164.083 139.833L164.583 140.333C166.133 141.881 167.362 143.719 168.201 145.743C169.04 147.766 169.471 149.935 169.471 152.125C169.471 154.315 169.04 156.484 168.201 158.507C167.362 160.531 166.133 162.369 164.583 163.917C163.035 165.466 161.197 166.696 159.174 167.534C157.151 168.373 154.982 168.805 152.792 168.805C150.601 168.805 148.433 168.373 146.409 167.534C144.386 166.696 142.548 165.466 141 163.917L140.5 163.417C138.536 161.496 136.042 160.207 133.338 159.717C130.635 159.226 127.847 159.557 125.333 160.667C122.869 161.723 120.767 163.477 119.286 165.713C117.805 167.949 117.011 170.568 117 173.25V174.667C117 179.087 115.244 183.326 112.118 186.452C108.993 189.577 104.754 191.333 100.333 191.333C95.9131 191.333 91.6738 189.577 88.5482 186.452C85.4226 183.326 83.6667 179.087 83.6667 174.667V173.917C83.6021 171.158 82.7093 168.483 81.1043 166.239C79.4992 163.995 77.2561 162.286 74.6667 161.333C72.1532 160.224 69.3651 159.893 66.6618 160.383C63.9585 160.873 61.464 162.162 59.5 164.083L59 164.583C57.4521 166.133 55.614 167.362 53.5907 168.201C51.5674 169.04 49.3986 169.471 47.2083 169.471C45.0181 169.471 42.8493 169.04 40.826 168.201C38.8027 167.362 36.9645 166.133 35.4167 164.583C33.8671 163.035 32.6377 161.197 31.799 159.174C30.9603 157.151 30.5286 154.982 30.5286 152.792C30.5286 150.601 30.9603 148.433 31.799 146.409C32.6377 144.386 33.8671 142.548 35.4167 141L35.9167 140.5C37.8378 138.536 39.1265 136.042 39.6167 133.338C40.1069 130.635 39.776 127.847 38.6667 125.333C37.6103 122.869 35.8563 120.767 33.6205 119.286C31.3848 117.805 28.7649 117.011 26.0833 117H24.6667C20.2464 117 16.0072 115.244 12.8816 112.118C9.75595 108.993 8 104.754 8 100.333C8 95.9131 9.75595 91.6738 12.8816 88.5482C16.0072 85.4226 20.2464 83.6667 24.6667 83.6667H25.4167C28.175 83.6021 30.85 82.7093 33.0942 81.1043C35.3383 79.4992 37.0476 77.2561 38 74.6667C39.1093 72.1532 39.4402 69.3651 38.95 66.6618C38.4599 63.9585 37.1711 61.464 35.25 59.5L34.75 59C33.2004 57.4521 31.9711 55.614 31.1323 53.5907C30.2936 51.5674 29.8619 49.3986 29.8619 47.2083C29.8619 45.0181 30.2936 42.8493 31.1323 40.826C31.9711 38.8027 33.2004 36.9645 34.75 35.4167C36.2979 33.8671 38.136 32.6377 40.1593 31.799C42.1826 30.9603 44.3514 30.5286 46.5417 30.5286C48.7319 30.5286 50.9007 30.9603 52.924 31.799C54.9473 32.6377 56.7854 33.8671 58.3333 35.4167L58.8333 35.9167C60.7973 37.8378 63.2918 39.1265 65.9951 39.6167C68.6984 40.1069 71.4865 39.776 74 38.6667H74.6667C77.1314 37.6103 79.2335 35.8563 80.7141 33.6205C82.1947 31.3848 82.9893 28.7649 83 26.0833V24.6667C83 20.2464 84.7559 16.0072 87.8816 12.8816C91.0072 9.75595 95.2464 8 99.6667 8C104.087 8 108.326 9.75595 111.452 12.8816C114.577 16.0072 116.333 20.2464 116.333 24.6667V25.4167C116.344 28.0982 117.139 30.7181 118.619 32.9539C120.1 35.1896 122.202 36.9436 124.667 38C127.18 39.1093 129.968 39.4402 132.672 38.95C135.375 38.4599 137.869 37.1711 139.833 35.25L140.333 34.75C141.881 33.2004 143.719 31.9711 145.743 31.1323C147.766 30.2936 149.935 29.8619 152.125 29.8619C154.315 29.8619 156.484 30.2936 158.507 31.1323C160.531 31.9711 162.369 33.2004 163.917 34.75C165.466 36.2979 166.696 38.136 167.534 40.1593C168.373 42.1826 168.805 44.3514 168.805 46.5417C168.805 48.7319 168.373 50.9007 167.534 52.924C166.696 54.9473 165.466 56.7854 163.917 58.3333L163.417 58.8333C161.496 60.7973 160.207 63.2918 159.717 65.9951C159.226 68.6984 159.557 71.4865 160.667 74V74.6667C161.723 77.1314 163.477 79.2335 165.713 80.7141C167.949 82.1947 170.568 82.9893 173.25 83H174.667C179.087 83 183.326 84.7559 186.452 87.8816C189.577 91.0072 191.333 95.2464 191.333 99.6667C191.333 104.087 189.577 108.326 186.452 111.452C183.326 114.577 179.087 116.333 174.667 116.333H173.917C171.235 116.344 168.615 117.139 166.379 118.619C164.144 120.1 162.39 122.202 161.333 124.667V124.667Z" stroke="black" stroke-width="3" stroke-linecap="round" stroke-linejoin="round"/>
</svg>
